<svg width="120" height="120" viewBox="0 0 120 120" fill="none" xmlns="http://www.w3.org/2000/svg">
<path d="M78.1594 40.5586C69.6398 40.5586 62.025 44.9742 62.025 53.1352C62.025 62.4914 75.5297 63.1383 75.5297 67.8398C75.5297 69.8203 73.2609 71.5922 69.3867 71.5922C63.8883 71.5922 59.7797 69.1172 59.7797 69.1172L58.0219 77.3508C58.0219 77.3508 62.7563 79.4414 69.0398 79.4414C78.3563 79.4414 85.6852 74.8078 85.6852 66.5086C85.6852 56.6203 72.1242 55.9945 72.1242 51.6305C72.1242 50.0789 73.9852 48.382 77.85 48.382C82.2094 48.382 85.7648 50.182 85.7648 50.182L87.4852 42.2297C87.4875 42.2297 83.618 40.5586 78.1594 40.5586ZM0.20625 41.1586L0 42.3609C0 42.3609 3.58359 43.0172 6.81328 44.325C10.9711 45.825 11.2664 46.6992 11.9672 49.4133L19.5961 78.8227H29.8219L45.5766 41.1609H35.3742L25.2516 66.7664L21.1195 45.0609C20.7398 42.5766 18.8227 41.1586 16.4719 41.1586H0.20625ZM49.6805 41.1586L41.6766 78.8203H51.4055L59.3812 41.1586H49.6805ZM103.945 41.1586C101.599 41.1586 100.357 42.4148 99.443 44.6086L85.1883 78.8203H95.3906L97.3641 73.118H109.795L110.995 78.8203H120L112.146 41.1586H103.945ZM105.272 51.3352L108.295 65.468H100.193L105.272 51.3352Z" fill="#1434CB"/>
</svg>
